<mxfile host="Electron" modified="2023-04-11T08:44:15.156Z" agent="Mozilla/5.0 (Windows NT 10.0; Win64; x64) AppleWebKit/537.36 (KHTML, like Gecko) draw.io/21.1.2 Chrome/106.0.5249.199 Electron/21.4.3 Safari/537.36" etag="ily7dYk-9lXiRaqLXd6t" version="21.1.2" type="device">
  <diagram name="페이지-1" id="FPVTGlMdPwzxhSNoOVzN">
    <mxGraphModel dx="1418" dy="828" grid="1" gridSize="10" guides="1" tooltips="1" connect="1" arrows="1" fold="1" page="1" pageScale="1" pageWidth="827" pageHeight="1169" math="0" shadow="0">
      <root>
        <mxCell id="0" />
        <mxCell id="1" parent="0" />
        <UserObject label="&lt;font style=&quot;font-size: 15px;&quot;&gt;사용자&lt;/font&gt;" tooltip="사용자" id="-tjOqQM0-vLoU4uhcop3-6">
          <mxCell style="shape=umlActor;verticalLabelPosition=bottom;verticalAlign=top;html=1;" parent="1" vertex="1">
            <mxGeometry x="160" y="120" width="40" height="80" as="geometry" />
          </mxCell>
        </UserObject>
        <mxCell id="-tjOqQM0-vLoU4uhcop3-12" value="&lt;font style=&quot;font-size: 15px;&quot;&gt;회원 가입&lt;/font&gt;" style="ellipse;whiteSpace=wrap;html=1;" parent="1" vertex="1">
          <mxGeometry x="480" y="125" width="140" height="70" as="geometry" />
        </mxCell>
        <UserObject label="&lt;font style=&quot;font-size: 15px;&quot;&gt;회사 회원&lt;/font&gt;" tooltip="사용자" id="-tjOqQM0-vLoU4uhcop3-14">
          <mxCell style="shape=umlActor;verticalLabelPosition=bottom;verticalAlign=top;html=1;" parent="1" vertex="1">
            <mxGeometry x="160" y="320" width="40" height="80" as="geometry" />
          </mxCell>
        </UserObject>
        <UserObject label="&lt;font style=&quot;font-size: 15px;&quot;&gt;회원&lt;/font&gt;" tooltip="사용자" id="-tjOqQM0-vLoU4uhcop3-15">
          <mxCell style="shape=umlActor;verticalLabelPosition=bottom;verticalAlign=top;html=1;" parent="1" vertex="1">
            <mxGeometry x="280" y="440" width="40" height="80" as="geometry" />
          </mxCell>
        </UserObject>
        <UserObject label="&lt;font style=&quot;font-size: 15px;&quot;&gt;일반 회원&lt;/font&gt;" tooltip="사용자" id="-tjOqQM0-vLoU4uhcop3-16">
          <mxCell style="shape=umlActor;verticalLabelPosition=bottom;verticalAlign=top;html=1;" parent="1" vertex="1">
            <mxGeometry x="160" y="560" width="40" height="80" as="geometry" />
          </mxCell>
        </UserObject>
        <mxCell id="-tjOqQM0-vLoU4uhcop3-17" value="&lt;font style=&quot;font-size: 15px;&quot;&gt;로그인&lt;/font&gt;" style="ellipse;whiteSpace=wrap;html=1;" parent="1" vertex="1">
          <mxGeometry x="480" y="325" width="140" height="70" as="geometry" />
        </mxCell>
        <mxCell id="-tjOqQM0-vLoU4uhcop3-18" value="&lt;font style=&quot;font-size: 15px;&quot;&gt;로그아웃&lt;/font&gt;" style="ellipse;whiteSpace=wrap;html=1;" parent="1" vertex="1">
          <mxGeometry x="480" y="445" width="140" height="70" as="geometry" />
        </mxCell>
        <mxCell id="-tjOqQM0-vLoU4uhcop3-19" value="&lt;font style=&quot;font-size: 15px;&quot;&gt;회원 탈퇴&lt;/font&gt;" style="ellipse;whiteSpace=wrap;html=1;" parent="1" vertex="1">
          <mxGeometry x="480" y="565" width="140" height="70" as="geometry" />
        </mxCell>
        <mxCell id="-tjOqQM0-vLoU4uhcop3-20" value="" style="endArrow=none;html=1;edgeStyle=orthogonalEdgeStyle;rounded=0;entryX=0;entryY=0.5;entryDx=0;entryDy=0;" parent="1" target="-tjOqQM0-vLoU4uhcop3-12" edge="1">
          <mxGeometry relative="1" as="geometry">
            <mxPoint x="200" y="159.5" as="sourcePoint" />
            <mxPoint x="360" y="159.5" as="targetPoint" />
          </mxGeometry>
        </mxCell>
        <mxCell id="-tjOqQM0-vLoU4uhcop3-41" value="" style="endArrow=block;endSize=16;endFill=0;html=1;rounded=0;entryX=0;entryY=0.3333333333333333;entryDx=0;entryDy=0;entryPerimeter=0;" parent="1" target="-tjOqQM0-vLoU4uhcop3-15" edge="1">
          <mxGeometry width="160" relative="1" as="geometry">
            <mxPoint x="200" y="360" as="sourcePoint" />
            <mxPoint x="350" y="370" as="targetPoint" />
          </mxGeometry>
        </mxCell>
        <mxCell id="-tjOqQM0-vLoU4uhcop3-42" value="" style="endArrow=block;endSize=16;endFill=0;html=1;rounded=0;" parent="1" edge="1">
          <mxGeometry width="160" relative="1" as="geometry">
            <mxPoint x="200" y="600" as="sourcePoint" />
            <mxPoint x="280" y="470" as="targetPoint" />
          </mxGeometry>
        </mxCell>
        <mxCell id="-tjOqQM0-vLoU4uhcop3-43" value="" style="endArrow=none;html=1;edgeStyle=orthogonalEdgeStyle;rounded=0;" parent="1" edge="1">
          <mxGeometry relative="1" as="geometry">
            <mxPoint x="320" y="479.5" as="sourcePoint" />
            <mxPoint x="480" y="479.5" as="targetPoint" />
          </mxGeometry>
        </mxCell>
        <mxCell id="-tjOqQM0-vLoU4uhcop3-46" value="" style="endArrow=none;html=1;rounded=0;entryX=0;entryY=0.5;entryDx=0;entryDy=0;" parent="1" target="-tjOqQM0-vLoU4uhcop3-17" edge="1">
          <mxGeometry relative="1" as="geometry">
            <mxPoint x="320" y="480" as="sourcePoint" />
            <mxPoint x="500" y="430" as="targetPoint" />
          </mxGeometry>
        </mxCell>
        <mxCell id="-tjOqQM0-vLoU4uhcop3-49" value="" style="endArrow=none;html=1;rounded=0;entryX=0;entryY=0.5;entryDx=0;entryDy=0;" parent="1" target="-tjOqQM0-vLoU4uhcop3-19" edge="1">
          <mxGeometry relative="1" as="geometry">
            <mxPoint x="320" y="480" as="sourcePoint" />
            <mxPoint x="470" y="510" as="targetPoint" />
          </mxGeometry>
        </mxCell>
        <mxCell id="PPvyzNL8agXYS-7EMQ3H-2" value="회원 인증 및 관리" style="swimlane;whiteSpace=wrap;html=1;" vertex="1" parent="1">
          <mxGeometry x="450" y="80" width="200" height="600" as="geometry" />
        </mxCell>
      </root>
    </mxGraphModel>
  </diagram>
</mxfile>
